<?xml version="1.0" encoding="UTF-8" standalone="no"?>
<!-- Created with Inkscape (http://www.inkscape.org/) -->

<svg
   width="210mm"
   height="297mm"
   viewBox="0 0 210 297"
   version="1.1"
   id="svg2055"
   inkscape:version="1.2.1 (9c6d41e410, 2022-07-14)"
   sodipodi:docname="Bottom_2_short.svg"
   xmlns:inkscape="http://www.inkscape.org/namespaces/inkscape"
   xmlns:sodipodi="http://sodipodi.sourceforge.net/DTD/sodipodi-0.dtd"
   xmlns="http://www.w3.org/2000/svg"
   xmlns:svg="http://www.w3.org/2000/svg">
  <sodipodi:namedview
     id="namedview2057"
     pagecolor="#ffffff"
     bordercolor="#000000"
     borderopacity="0.25"
     inkscape:showpageshadow="2"
     inkscape:pageopacity="0.0"
     inkscape:pagecheckerboard="0"
     inkscape:deskcolor="#d1d1d1"
     inkscape:document-units="mm"
     showgrid="false"
     inkscape:zoom="0.71624579"
     inkscape:cx="275.04525"
     inkscape:cy="395.81384"
     inkscape:window-width="1920"
     inkscape:window-height="991"
     inkscape:window-x="-9"
     inkscape:window-y="-9"
     inkscape:window-maximized="1"
     inkscape:current-layer="layer1" />
  <defs
     id="defs2052" />
  <g
     inkscape:label="Ebene 1"
     inkscape:groupmode="layer"
     id="layer1">
    <g
       inkscape:label="0"
       id="g6546"
       transform="matrix(-0.26458333,0,0,-0.26458333,60.129029,327.13285)">
      <path
         d="m -170.07874,1065.8268 a 75.590551,75.590551 0 0 0 0,151.1811 h 302.3622 a 75.590551,75.590551 0 0 0 1e-5,-151.1811 z"
         style="fill:none;stroke:#000000"
         id="path6518" />
      <path
         style="fill:none;stroke:#000000"
         d="M 132.283,1217.01 H -170.079"
         id="path6520" />
      <path
         style="fill:none;stroke:#000000"
         d="M -170.079,1065.83 H 132.283"
         id="path6522" />
      <path
         d="m 132.28346,1217.0079 a 75.590551,75.590551 0 0 0 1e-5,-151.1811"
         style="fill:none;stroke:#000000"
         id="path6524" />
      <path
         d="m -170.07874,1065.8268 a 75.590551,75.590551 0 0 0 0,151.1811"
         style="fill:none;stroke:#000000"
         id="path6526" />
      <path
         d="m -151.1811,1107.4016 a 22.677165,22.677165 0 0 0 22.67716,-22.6772 H 90.708663 a 22.677165,22.677165 0 0 0 22.677167,22.6772 v 68.0315 a 22.677165,22.677165 0 0 0 -22.677167,22.6771 H -128.50394 a 22.677165,22.677165 0 0 0 -22.67716,-22.6771 z"
         style="fill:none;stroke:#000000"
         id="path6528" />
      <path
         d="m 177.6378,1141.4173 a 7.5590555,7.5590555 0 0 0 -15.11811,0 7.5590555,7.5590555 0 0 0 15.11811,0 z"
         style="fill:none;stroke:#000000"
         id="path6530" />
      <path
         d="m -200.31496,1141.8098 a 7.559055,7.559055 0 0 0 -15.11811,0 7.559055,7.559055 0 0 0 15.11811,0 z"
         style="fill:none;stroke:#000000"
         id="path6532" />
      <path
         d="m -145.03937,1198.1102 a 6.141735,6.141735 0 0 0 -12.28347,0 6.141735,6.141735 0 0 0 12.28347,0 z"
         style="fill:none;stroke:#000000"
         id="path6534" />
      <path
         d="m -145.03937,1084.7244 a 6.141735,6.141735 0 0 0 -12.28347,0 6.141735,6.141735 0 0 0 12.28347,0 z"
         style="fill:none;stroke:#000000"
         id="path6536" />
      <path
         d="m 119.52756,1198.1102 a 6.1417325,6.1417325 0 0 0 -12.28346,0 6.1417325,6.1417325 0 0 0 12.28346,0 z"
         style="fill:none;stroke:#000000"
         id="path6538" />
      <path
         d="m 119.52756,1084.7244 a 6.1417325,6.1417325 0 0 0 -12.28346,0 6.1417325,6.1417325 0 0 0 12.28346,0 z"
         style="fill:none;stroke:#000000"
         id="path6540" />
      <path
         d="m -200.31496,1141.4173 a 7.5590555,7.5590555 0 0 0 -15.11811,0 7.5590555,7.5590555 0 0 0 15.11811,0 z"
         style="fill:none;stroke:#000000"
         id="path6542" />
      <path
         d="m 177.6378,1141.4173 a 7.559055,7.559055 0 0 0 -15.11811,0 7.559055,7.559055 0 0 0 15.11811,0 z"
         style="fill:none;stroke:#000000"
         id="path6544" />
    </g>
  </g>
</svg>
