<?xml version="1.0" encoding="UTF-8" standalone="no"?>
<!-- Created with Inkscape (http://www.inkscape.org/) -->

<svg
   width="210mm"
   height="297mm"
   viewBox="0 0 210 297"
   version="1.1"
   id="svg2055"
   inkscape:version="1.2.1 (9c6d41e410, 2022-07-14)"
   sodipodi:docname="Cover_short.svg"
   xmlns:inkscape="http://www.inkscape.org/namespaces/inkscape"
   xmlns:sodipodi="http://sodipodi.sourceforge.net/DTD/sodipodi-0.dtd"
   xmlns="http://www.w3.org/2000/svg"
   xmlns:svg="http://www.w3.org/2000/svg">
  <sodipodi:namedview
     id="namedview2057"
     pagecolor="#ffffff"
     bordercolor="#000000"
     borderopacity="0.25"
     inkscape:showpageshadow="2"
     inkscape:pageopacity="0.0"
     inkscape:pagecheckerboard="0"
     inkscape:deskcolor="#d1d1d1"
     inkscape:document-units="mm"
     showgrid="false"
     inkscape:zoom="0.71624579"
     inkscape:cx="275.04525"
     inkscape:cy="218.50041"
     inkscape:window-width="1920"
     inkscape:window-height="991"
     inkscape:window-x="-9"
     inkscape:window-y="-9"
     inkscape:window-maximized="1"
     inkscape:current-layer="layer1" />
  <defs
     id="defs2052" />
  <g
     inkscape:label="Ebene 1"
     inkscape:groupmode="layer"
     id="layer1">
    <g
       inkscape:label="0"
       id="g39538"
       transform="matrix(0.26458333,0,0,0.26458333,50.132291,-276.86771)">
      <path
         d="m -151.1811,1065.8268 h 264.56693 a 18.897638,18.897638 0 0 1 18.89764,18.8976 v 113.3858 a 18.897638,18.897638 0 0 1 -18.89764,18.8977 H -151.1811 a 18.897638,18.897638 0 0 1 -18.89764,-18.8977 v -113.3858 a 18.897638,18.897638 0 0 1 18.89764,-18.8976 z"
         style="fill:none;stroke:#000000"
         id="path39518" />
      <path
         d="m -145.03937,1084.7244 a 6.141735,6.141735 0 0 0 -12.28347,0 6.141735,6.141735 0 0 0 12.28347,0 z"
         style="fill:none;stroke:#000000"
         id="path39520" />
      <path
         d="m -145.03937,1198.1102 a 6.141735,6.141735 0 0 0 -12.28347,0 6.141735,6.141735 0 0 0 12.28347,0 z"
         style="fill:none;stroke:#000000"
         id="path39522" />
      <path
         d="m 119.52756,1198.1102 a 6.1417325,6.1417325 0 0 0 -12.28346,0 6.1417325,6.1417325 0 0 0 12.28346,0 z"
         style="fill:none;stroke:#000000"
         id="path39524" />
      <path
         d="m 119.52756,1084.7244 a 6.1417325,6.1417325 0 0 0 -12.28346,0 6.1417325,6.1417325 0 0 0 12.28346,0 z"
         style="fill:none;stroke:#000000"
         id="path39526" />
      <path
         d="m -145.03937,1198.1102 a 6.141735,6.141735 0 0 0 -12.28347,0 6.141735,6.141735 0 0 0 12.28347,0 z"
         style="fill:none;stroke:#000000"
         id="path39528" />
      <path
         d="m 119.52756,1084.7244 a 6.1417325,6.1417325 0 0 0 -12.28346,0 6.1417325,6.1417325 0 0 0 12.28346,0 z"
         style="fill:none;stroke:#000000"
         id="path39530" />
      <path
         d="m 119.52756,1198.1102 a 6.1417325,6.1417325 0 0 0 -12.28346,0 6.1417325,6.1417325 0 0 0 12.28346,0 z"
         style="fill:none;stroke:#000000"
         id="path39532" />
      <path
         d="m -145.03937,1084.7244 a 6.141735,6.141735 0 0 0 -12.28347,0 6.141735,6.141735 0 0 0 12.28347,0 z"
         style="fill:none;stroke:#000000"
         id="path39534" />
      <path
         d="m 113.38583,1217.0079 a 18.897638,18.897638 0 0 0 18.89764,-18.8977 v -113.3858 a 18.897638,18.897638 0 0 0 -18.89764,-18.8976 H -151.1811 a 18.897638,18.897638 0 0 0 -18.89764,18.8976 v 113.3858 a 18.897638,18.897638 0 0 0 18.89764,18.8977 z"
         style="fill:none;stroke:#000000"
         id="path39536" />
    </g>
  </g>
</svg>
